<svg width="46" height="46" viewBox="0 0 46 46" fill="none" xmlns="http://www.w3.org/2000/svg">
<g id="Burger Square">
<path id="Menu " opacity="0.5" fill-rule="evenodd" clip-rule="evenodd" d="M0 2.94444V0H2.94737V1H1V2.94444H0ZM4 1V0H18L19 1H4ZM1 4V17L0 18V4H1ZM45 42V29L46 28V42H45ZM46 43.0556V46H43.0526V45H45V43.0556H46ZM42 45V46H28L27 45H42ZM16.0833 4L17.0833 3H3V17.0833L4 16.0833V4H16.0833ZM27.0294 4L26.0294 3H19.9117L18.9117 4H27.0294ZM42.9706 17.1127L43 17.0833V3H28.8579L29.8579 4H42V16.1421L42.9706 17.1127ZM42.9706 19.9411L42 18.9706V26.9706L42.9706 26L43 26.0294V19.9117L42.9706 19.9411ZM4 27.0294V18.9117L3 19.9117V26.0294L4 27.0294ZM4 42V29.8579L3 28.8579V43H17.0833L17.1127 42.9706L16.1421 42H4ZM19.9117 43L19.9411 42.9706L18.9706 42H26.9706L26 42.9706L26.0294 43H19.9117ZM42 42H29.799L28.8284 42.9706L28.8579 43H43V28.8579L42.9706 28.8284L42 29.799V42Z" fill="white"/>
<g id="Vector">
<path d="M16.2402 17.7036L14.963 12.0087L28.89 11.9815L30.1672 17.6764L16.2402 17.7036Z" fill="white"/>
<path d="M16.242 18.6532L14.987 24.353L28.914 24.3259L30.169 18.626L16.242 18.6532Z" fill="white"/>
<path d="M16.2661 30.9975L14.9889 25.3026L28.9159 25.2755L30.1931 30.9704L16.2661 30.9975Z" fill="white"/>
</g>
</g>
</svg>
