<svg width="46" height="46" viewBox="0 0 46 46" fill="none" xmlns="http://www.w3.org/2000/svg">
<g id="Burger Square">
<path id="Menu " opacity="0.5" fill-rule="evenodd" clip-rule="evenodd" d="M0 2.94444V0H2.94737V1H1V2.94444H0ZM4 1V0H18L19 1H4ZM1 4V17L0 18V4H1ZM45 42V29L46 28V42H45ZM46 43.0556V46H43.0526V45H45V43.0556H46ZM42 45V46H28L27 45H42ZM16.0833 4L17.0833 3H3V17.0833L4 16.0833V4H16.0833ZM27.0294 4L26.0294 3H19.9117L18.9117 4H27.0294ZM42.9706 17.1127L43 17.0833V3H28.8579L29.8579 4H42V16.1421L42.9706 17.1127ZM42.9706 19.9411L42 18.9706V26.9706L42.9706 26L43 26.0294V19.9117L42.9706 19.9411ZM4 27.0294V18.9117L3 19.9117V26.0294L4 27.0294ZM4 42V29.8579L3 28.8579V43H17.0833L17.1127 42.9706L16.1421 42H4ZM19.9117 43L19.9411 42.9706L18.9706 42H26.9706L26 42.9706L26.0294 43H19.9117ZM42 42H29.799L28.8284 42.9706L28.8579 43H43V28.8579L42.9706 28.8284L42 29.799V42Z" fill="white"/>
<g id="Close" opacity="0.5">
<path d="M17.7782 16.3236L16.4545 15L15 16.4545L17.7782 19.2327V16.3236Z" fill="#FF0000"/>
<path d="M17.7782 26.7673L15 29.5455L16.4545 31L17.7782 29.6764V26.7673Z" fill="#FF0000"/>
<path d="M18.7782 28.6764V25.7673L20.9515 23.5939C21.2509 24.2633 21.9075 24.738 22.6788 24.7757L18.7782 28.6764Z" fill="#FF0000"/>
<path d="M18.7782 20.2327V17.3236L22.2922 20.8376C21.5781 21.0159 21.0159 21.578 20.8376 22.2922L18.7782 20.2327Z" fill="#FF0000"/>
<path d="M31 16.4545L29.5455 15L28.7673 15.7782H28.7782V18.6764L31 16.4545Z" fill="#FF0000"/>
<path d="M23.5939 20.9515L27.7782 16.7673V19.6764L24.7757 22.6788C24.738 21.9075 24.2633 21.2509 23.5939 20.9515Z" fill="#FF0000"/>
<path d="M24.7187 23.2642L27.7782 26.3236V29.2327L23.2642 24.7187C23.9783 24.5404 24.5404 23.9783 24.7187 23.2642Z" fill="#FF0000"/>
<path d="M29.5455 31L28.7782 30.2327V27.3236L31 29.5455L29.5455 31Z" fill="#FF0000"/>
<path d="M23.7782 22.7782C23.7782 23.3305 23.3305 23.7782 22.7782 23.7782C22.2259 23.7782 21.7782 23.3305 21.7782 22.7782C21.7782 22.2259 22.2259 21.7782 22.7782 21.7782C23.3305 21.7782 23.7782 22.2259 23.7782 22.7782Z" fill="#FF0000"/>
</g>
</g>
</svg>
